<svg width="122" height="91" viewBox="0 0 122 91" fill="none" xmlns="http://www.w3.org/2000/svg">
<path d="M67.2944 13.1646H26.8241C23.6134 13.1646 21 15.778 21 18.9887V74.9154C21 78.1262 23.6134 80.7395 26.8241 80.7395H67.2944C70.5052 80.7395 73.1186 78.1262 73.1186 74.9154V18.9887C73.1186 15.778 70.5052 13.1646 67.2944 13.1646Z" fill="white" stroke="#1D1E1E" stroke-width="1.4" stroke-miterlimit="10" stroke-linecap="round"/>
<path d="M55.4988 10.9999H38.6238C37.4291 10.9999 36.4584 11.9706 36.4584 13.1653C36.4584 14.36 37.4291 15.3307 38.6238 15.3307H55.4988C56.6935 15.3307 57.6642 14.36 57.6642 13.1653C57.6642 11.9706 56.6935 10.9999 55.4988 10.9999Z" fill="#318FCC" stroke="#1D1E1E" stroke-width="1.4" stroke-miterlimit="10" stroke-linecap="round"/>
<path d="M29.8138 59.4753H65.2066H29.8138Z" fill="white"/>
<path d="M29.8138 59.4753H65.2066" stroke="#1D1E1E" stroke-width="1.4" stroke-miterlimit="10" stroke-linecap="round"/>
<path d="M29.8138 67.3893H65.2066H29.8138Z" fill="white"/>
<path d="M29.8138 67.3893H65.2066" stroke="#1D1E1E" stroke-width="1.4" stroke-miterlimit="10" stroke-linecap="round"/>
<g clip-path="url(#clip0_123_3851)">
<path fill-rule="evenodd" clip-rule="evenodd" d="M35.8994 33.1875C35.8255 33.2139 35.7585 33.2566 35.7034 33.3126C35.6754 33.3393 35.6501 33.3687 35.6279 33.4005L33.4221 36.244C33.3305 36.362 33.2896 36.5116 33.3083 36.6598C33.327 36.808 33.4038 36.9427 33.5218 37.0343C33.6398 37.1259 33.7894 37.1668 33.9376 37.1481C34.0858 37.1294 34.2205 37.0526 34.3121 36.9346L35.1852 35.8091C35.1683 36.0682 35.1593 36.3285 35.1593 36.5887C35.1593 43.1116 40.4655 48.4178 46.9884 48.4178C48.9744 48.4218 50.9293 47.9239 52.6715 46.9705C54.4137 46.017 55.8868 44.6389 56.9542 42.9641C56.996 42.9018 57.0251 42.8318 57.0395 42.7581C57.054 42.6845 57.0535 42.6087 57.0383 42.5352C57.023 42.4617 56.9933 42.392 56.9507 42.3302C56.9081 42.2684 56.8537 42.2157 56.7904 42.1753C56.7272 42.1348 56.6566 42.1074 56.5826 42.0946C56.5087 42.0818 56.4329 42.084 56.3598 42.1009C56.2867 42.1178 56.2177 42.1491 56.1569 42.1931C56.096 42.237 56.0446 42.2927 56.0056 42.3568C55.0397 43.8721 53.7068 45.119 52.1304 45.9816C50.5541 46.8442 48.7854 47.2947 46.9884 47.2913C41.0873 47.2913 36.2859 42.4897 36.2859 36.5887C36.286 36.1667 36.3104 35.745 36.3591 35.3258L37.2525 36.8861C37.2892 36.9504 37.3382 37.0068 37.3967 37.0522C37.4552 37.0975 37.522 37.1309 37.5934 37.1504C37.6648 37.1699 37.7394 37.1752 37.8128 37.1659C37.8862 37.1566 37.9571 37.1329 38.0214 37.0962C38.0857 37.0596 38.1421 37.0106 38.1874 36.9521C38.2328 36.8936 38.2662 36.8267 38.2857 36.7553C38.3052 36.6839 38.3104 36.6094 38.3011 36.5359C38.2918 36.4625 38.2682 36.3916 38.2315 36.3274L36.5799 33.4433C36.5339 33.363 36.4688 33.2952 36.3904 33.2459C36.312 33.1966 36.2228 33.1673 36.1304 33.1605C36.0524 33.152 35.9734 33.1612 35.8994 33.1875ZM57.6628 36.5887C57.6628 37.0123 57.6391 37.4337 57.5895 37.8527L56.6962 36.2913C56.6597 36.2269 56.6108 36.1703 56.5523 36.1249C56.4939 36.0795 56.427 36.0461 56.3555 36.0267C56.284 36.0074 56.2095 36.0023 56.136 36.012C56.0626 36.0216 55.9919 36.0457 55.9278 36.0829C55.8637 36.1195 55.8074 36.1684 55.7621 36.2267C55.7169 36.2851 55.6836 36.3518 55.6641 36.4231C55.6446 36.4943 55.6394 36.5687 55.6487 36.642C55.658 36.7152 55.6816 36.786 55.7183 36.8501L57.3699 39.7353C57.4158 39.8157 57.4808 39.8836 57.5592 39.9329C57.6376 39.9823 57.727 40.0115 57.8194 40.018L57.8633 40.0192C57.9407 40.0185 58.0171 40.002 58.0878 39.9706C58.1586 39.9392 58.2221 39.8936 58.2745 39.8367L58.3038 39.8017L60.5277 36.9346C60.5731 36.8761 60.6066 36.8093 60.6262 36.738C60.6458 36.6666 60.6511 36.5921 60.6419 36.5186C60.6327 36.4452 60.6091 36.3743 60.5725 36.3099C60.5359 36.2456 60.487 36.1891 60.4285 36.1437C60.3701 36.0983 60.3033 36.0648 60.2319 36.0452C60.1605 36.0256 60.086 36.0203 60.0126 36.0295C59.8643 36.0481 59.7294 36.1248 59.6377 36.2429L58.7646 37.3694C58.7815 37.1103 58.7894 36.8501 58.7894 36.5887C58.7894 30.0658 53.4832 24.7596 46.9602 24.7596C44.9743 24.756 43.0195 25.254 41.2774 26.2074C39.5352 27.1608 38.062 28.5387 36.9945 30.2134C36.9256 30.3388 36.9069 30.4858 36.9423 30.6245C36.9776 30.7632 37.0643 30.8833 37.1849 30.9605C37.3055 31.0376 37.4508 31.0661 37.5916 31.0402C37.7323 31.0142 37.858 30.9357 37.9431 30.8206C38.9091 29.3054 40.242 28.0587 41.8184 27.1961C43.3947 26.3335 45.1633 25.8829 46.9602 25.8862C52.8613 25.8862 57.6628 30.6877 57.6628 36.5887Z" fill="#1D1E1E"/>
<path d="M47.2832 42.854C50.5804 42.854 53.2534 40.181 53.2534 36.8838C53.2534 33.5865 50.5804 30.9136 47.2832 30.9136C43.9859 30.9136 41.313 33.5865 41.313 36.8838C41.313 40.181 43.9859 42.854 47.2832 42.854Z" stroke="#1D1E1E" stroke-width="1.2" stroke-miterlimit="10" stroke-linecap="round"/>
<path d="M42.5029 36.8792L41.3106 36.8792" stroke="#1D1E1E" stroke-width="1.2" stroke-miterlimit="10" stroke-linecap="round"/>
<path d="M51.9637 36.2792C51.6324 36.2792 51.3637 36.5478 51.3637 36.8792C51.3637 37.2105 51.6324 37.4792 51.9637 37.4792V36.2792ZM53.1575 37.4792H53.7575V36.2792H53.1575V37.4792ZM51.9637 36.8792V37.4792H53.1575V36.8792V36.2792H51.9637V36.8792Z" fill="#1D1E1E"/>
<path d="M47.2837 41.6601V42.8538" stroke="#1D1E1E" stroke-width="1.2" stroke-miterlimit="10" stroke-linecap="round"/>
<path d="M46.6837 32.2024C46.6837 32.5337 46.9523 32.8024 47.2837 32.8024C47.6151 32.8024 47.8837 32.5337 47.8837 32.2024L46.6837 32.2024ZM47.8837 31.0086L47.8837 30.4086L46.6837 30.4086L46.6837 31.0086L47.8837 31.0086ZM47.2837 32.2024L47.8837 32.2024L47.8837 31.0086L47.2837 31.0086L46.6837 31.0086L46.6837 32.2024L47.2837 32.2024Z" fill="#1D1E1E"/>
<path d="M47.2809 29.2078V30.4015" stroke="#1D1E1E" stroke-width="1.2" stroke-miterlimit="10" stroke-linecap="round"/>
<path d="M45.5751 29.2078L48.9866 29.2078" stroke="#1D1E1E" stroke-width="1.2" stroke-miterlimit="10" stroke-linecap="round"/>
<path d="M47.2809 34.4768V36.8838L48.9867 38.5896" stroke="#1D1E1E" stroke-width="1.2" stroke-linecap="round"/>
</g>
<path d="M26.4978 80.7026H96.3079" stroke="#1D1E1E" stroke-width="1.4" stroke-miterlimit="10" stroke-linecap="round"/>
<path d="M49.6215 71.8896H52.5536C53.1452 71.8896 53.7106 72.127 54.1248 72.5424C54.5455 72.9579 54.7756 73.525 54.7756 74.1119V78.0025C54.7756 78.8004 54.4601 79.5588 53.8947 80.1193C53.3293 80.6798 52.5667 80.9963 51.7713 80.9963H50.3776C49.5821 80.9963 48.8195 80.6798 48.2607 80.1193C47.7019 79.5588 47.3864 78.7938 47.3864 78.0025V74.1119C47.3864 73.8217 47.4455 73.5316 47.5573 73.2612C47.669 72.9908 47.8334 72.7468 48.0438 72.5424C48.2541 72.338 48.4974 72.1731 48.7669 72.061C49.0364 71.9489 49.3257 71.8896 49.6215 71.8962V71.8896Z" fill="white" stroke="#1D1E1E" stroke-width="1.4" stroke-miterlimit="10"/>
<path d="M83.4073 71.894H86.3459C86.9376 71.894 87.503 72.1314 87.9171 72.5469C88.3379 72.9623 88.568 73.5294 88.568 74.1163V78.007C88.568 78.8049 88.2524 79.5632 87.687 80.1237C87.1217 80.6843 86.3591 81.0008 85.5636 81.0008H84.1699C83.3745 81.0008 82.6119 80.6843 82.0531 80.1172C81.4943 79.5566 81.1787 78.7917 81.1787 78.0004V74.1097C81.1787 73.5228 81.4154 72.9557 81.8295 72.5403C82.2503 72.1248 82.8157 71.8875 83.4008 71.8875L83.4073 71.894Z" fill="white" stroke="#1D1E1E" stroke-width="1.4" stroke-miterlimit="10"/>
<path d="M90.0441 60.8663C90.1427 60.741 90.2282 60.6091 90.3005 60.4707C90.5437 59.9827 90.6489 59.4354 90.5963 58.888C90.5437 58.4 90.3531 57.9384 90.0572 57.5428C89.7614 57.1537 89.3604 56.8504 88.9068 56.6657C88.6635 56.5668 88.4137 56.5075 88.1573 56.4811C87.7826 56.4481 87.4013 56.4877 87.0397 56.6064C86.6782 56.7251 86.3494 56.9163 86.0733 57.1735C85.7907 57.4307 85.5671 57.734 85.4159 58.0835C85.2647 58.4264 85.1858 58.8023 85.1858 59.1782C85.1858 59.2705 85.1858 59.3628 85.2056 59.4551C85.2713 59.9827 85.245 60.5168 85.1201 61.0378L84.9229 61.8291C84.9032 61.9016 84.9032 61.9874 84.9229 62.0599C84.9426 62.1324 84.9886 62.205 85.0412 62.2577C85.1004 62.3105 85.1661 62.35 85.245 62.3698C85.3239 62.3896 85.4028 62.383 85.4751 62.3632L86.6387 62.0401C87.0529 61.9346 87.4868 61.8818 87.9141 61.8884C88.3217 61.8884 88.7227 61.7961 89.0908 61.6181C89.459 61.44 89.7811 61.1894 90.0441 60.8729V60.8663Z" fill="white" stroke="#1D1E1E" stroke-width="1.4" stroke-miterlimit="10" stroke-linecap="round"/>
<path d="M45.1505 60.8682C45.0519 60.7429 44.9664 60.611 44.8941 60.4725C44.6443 59.9845 44.5325 59.4372 44.5851 58.8965C44.6377 58.4085 44.8284 57.9469 45.1242 57.5512C45.42 57.1622 45.821 56.8588 46.2747 56.6742C46.5179 56.5753 46.7677 56.5159 47.0241 56.4896C47.3988 56.4566 47.7801 56.4962 48.1417 56.6148C48.5033 56.7335 48.832 56.9248 49.1081 57.182C49.3908 57.4391 49.6143 57.7425 49.7655 58.092C49.9167 58.4349 49.9956 58.8108 49.9956 59.1866C49.9956 59.279 49.9956 59.3713 49.9759 59.4636C49.9101 59.9911 49.9364 60.5253 50.0613 61.0462L50.2585 61.8375C50.2783 61.9101 50.2783 61.9958 50.2585 62.0683C50.2388 62.1409 50.1928 62.2134 50.1402 62.2662C50.081 62.3189 50.0153 62.3585 49.9364 62.3783C49.8575 62.3981 49.7786 62.3915 49.7063 62.3717L48.5427 62.0486C48.1285 61.9431 47.7012 61.8903 47.2739 61.8969C46.8663 61.8969 46.4653 61.8046 46.0972 61.6265C45.729 61.4485 45.4003 61.1979 45.1439 60.8814H45.1571L45.1505 60.8682Z" fill="white" stroke="#1D1E1E" stroke-width="1.4" stroke-miterlimit="10" stroke-linecap="round" stroke-linejoin="round"/>
<path d="M86.0118 60.6367L82.7576 51.7146C82.2054 50.5276 81.3245 49.5253 80.22 48.8263C79.1156 48.1273 77.8336 47.758 76.5188 47.7646H58.5059C57.3094 47.7646 56.1326 48.0679 55.0873 48.6614C54.0486 49.2549 53.1809 50.1056 52.5695 51.1343L48.5001 60.9268L86.0052 60.6433L86.0118 60.6367Z" fill="#318FCC" stroke="#1D1E1E" stroke-width="1.4" stroke-miterlimit="10"/>
<path d="M87.69 75.6037C74.3644 76.3225 61.0058 76.3225 47.6802 75.6037C46.0827 75.6037 44.7876 74.5289 44.7876 73.2034V66.4442C44.7876 62.8767 48.2653 59.9884 52.5582 59.9884H82.812C87.1049 59.9884 90.5826 62.8767 90.5826 66.4442V73.2034C90.5826 74.5289 89.2875 75.6037 87.69 75.6037Z" fill="white" stroke="#1D1E1E" stroke-width="1.4" stroke-miterlimit="10"/>
<path d="M77.4227 70.2759C71.0919 70.7243 64.7347 70.7243 58.3973 70.2759H77.4227Z" fill="white"/>
<path d="M77.4227 70.2759C71.0919 70.7243 64.7347 70.7243 58.3973 70.2759" stroke="#1D1E1E" stroke-width="1.4" stroke-miterlimit="10" stroke-linecap="round"/>
<path d="M53.8967 64.532H51.7141C50.603 64.532 49.7024 65.4289 49.7024 66.5367V67.1632C49.7024 68.271 50.603 69.1678 51.7141 69.1678H53.8967C55.0077 69.1678 55.9083 68.271 55.9083 67.1632V66.5367C55.9083 65.4289 55.0077 64.532 53.8967 64.532Z" fill="#318FCC" stroke="#1D1E1E" stroke-width="1.4" stroke-miterlimit="10"/>
<path d="M84.3033 64.532H82.1273C81.0163 64.532 80.1156 65.4289 80.1156 66.5367V67.1632C80.1156 68.271 81.0163 69.1678 82.1273 69.1678H84.3033C85.4143 69.1678 86.315 68.271 86.315 67.1632V66.5367C86.315 65.4289 85.4143 64.532 84.3033 64.532Z" fill="#318FCC" stroke="#1D1E1E" stroke-width="1.4" stroke-miterlimit="10"/>
<defs>
<clipPath id="clip0_123_3851">
<rect width="27.3424" height="27.3424" fill="white" transform="translate(33.3041 22.9369)"/>
</clipPath>
</defs>
</svg>
