<svg width="125" height="95" viewBox="0 0 125 95" fill="none" xmlns="http://www.w3.org/2000/svg">
<path d="M14 91.1L99.2846 91.1L111 91.1" fill="white"/>
<path d="M14 91.1L99.2846 91.1L111 91.1" stroke="#1D1E1E" stroke-width="1.3" stroke-miterlimit="10" stroke-linecap="round"/>
<path d="M25.4986 81.1027H28.6979C29.3413 81.1027 29.9584 81.3576 30.4133 81.8114C30.8683 82.2652 31.1239 82.8807 31.1239 83.5225V87.7571C31.1239 88.6227 30.7792 89.4528 30.1655 90.0649C29.5519 90.677 28.7196 91.0208 27.8518 91.0208H26.3355C25.4682 91.02 24.6368 90.6758 24.0238 90.0638C23.4108 89.4519 23.0665 88.6222 23.0665 87.7571V83.5225C23.0665 82.8807 23.3221 82.2652 23.777 81.8114C24.232 81.3576 24.8491 81.1027 25.4925 81.1027H25.4986Z" fill="white" stroke="#1D1E1E" stroke-width="1.3" stroke-miterlimit="10"/>
<path d="M62.3191 81.1027H65.5184C66.1618 81.1027 66.7789 81.3576 67.2339 81.8114C67.6888 82.2652 67.9444 82.8807 67.9444 83.5225V87.7571C67.9444 88.6227 67.5997 89.4529 66.9861 90.0649C66.3724 90.677 65.5402 91.0208 64.6723 91.0208H63.1561C62.2883 91.0208 61.456 90.677 60.8424 90.0649C60.2287 89.4529 59.884 88.6227 59.884 87.7571V83.5225C59.884 83.204 59.947 82.8886 60.0695 82.5944C60.192 82.3002 60.3715 82.033 60.5978 81.8082C60.824 81.5834 61.0925 81.4054 61.3879 81.2843C61.6833 81.1632 61.9997 81.1015 62.3191 81.1027Z" fill="white" stroke="#1D1E1E" stroke-width="1.3" stroke-miterlimit="10"/>
<path d="M69.5394 69.1006C69.6473 68.9648 69.7417 68.8189 69.8214 68.665C70.0951 68.1359 70.2119 67.5399 70.158 66.9469C70.0986 66.4155 69.8961 65.91 69.572 65.484C69.248 65.058 68.8144 64.7274 68.3173 64.5271C67.8697 64.3488 67.3853 64.2823 66.9061 64.3332C66.4269 64.384 65.9674 64.5508 65.5675 64.8191C65.1676 65.0874 64.8395 65.4491 64.6116 65.8726C64.3837 66.2961 64.2629 66.7687 64.2598 67.2494C64.2601 67.3505 64.2661 67.4515 64.278 67.5519C64.3496 68.1264 64.3188 68.7091 64.187 69.273L63.9747 70.132C63.9536 70.2144 63.9549 70.3009 63.9785 70.3826C64.0021 70.4643 64.0471 70.5383 64.1089 70.5968C64.1707 70.6554 64.2471 70.6964 64.3301 70.7158C64.4131 70.7351 64.4998 70.732 64.5812 70.7067L65.8458 70.3528C66.2936 70.2403 66.7548 70.1894 67.2165 70.2016C67.6602 70.1974 68.0976 70.0967 68.4983 69.9065C68.899 69.7164 69.2532 69.4413 69.5364 69.1006H69.5394Z" fill="white" stroke="#1D1E1E" stroke-width="1.3" stroke-miterlimit="10" stroke-linecap="round"/>
<path d="M20.634 69.1005C20.5262 68.9647 20.4317 68.8189 20.352 68.665C20.0774 68.1361 19.9596 67.5401 20.0124 66.9469C20.0832 66.2693 20.3867 65.6369 20.8713 65.1568C21.356 64.6767 21.992 64.3784 22.6719 64.3123C23.082 64.2741 23.4956 64.3215 23.8863 64.4517C24.277 64.5818 24.6362 64.7917 24.9409 65.0681C25.2457 65.3445 25.4893 65.6812 25.6563 66.0568C25.8233 66.4324 25.9099 66.8385 25.9106 67.2494C25.9103 67.3504 25.9042 67.4514 25.8924 67.5518C25.8208 68.1264 25.8516 68.7091 25.9834 69.2729L26.1987 70.1319C26.2185 70.2127 26.2169 70.2973 26.1939 70.3772C26.1709 70.4572 26.1274 70.5298 26.0677 70.5878C26.008 70.6459 25.9341 70.6874 25.8533 70.7082C25.7726 70.729 25.6878 70.7285 25.6074 70.7067L24.3398 70.3527C23.8831 70.2375 23.4126 70.1866 22.9418 70.2015C22.4746 70.201 22.0143 70.0901 21.5984 69.8779C21.2247 69.6908 20.8958 69.4257 20.634 69.1005Z" fill="white" stroke="#1D1E1E" stroke-width="1.3" stroke-miterlimit="10" stroke-linecap="round"/>
<path d="M65.1483 68.8525L61.6063 59.134C61.0057 57.8428 60.046 56.7507 58.8413 55.9876C57.6366 55.2246 56.2375 54.8228 54.8104 54.8298H35.1839C33.8796 54.8249 32.5967 55.1607 31.4629 55.8038C30.3292 56.447 29.384 57.3751 28.7215 58.4958L24.2819 69.158L65.1483 68.8525Z" fill="#318FCC" stroke="#1D1E1E" stroke-width="1.3" stroke-miterlimit="10"/>
<path d="M66.9767 85.1468C52.4553 85.9272 37.9024 85.9272 23.381 85.1468C21.6403 85.1468 20.2272 83.9762 20.2272 82.5334V75.1712C20.2272 71.2904 24.0209 68.1447 28.697 68.1447H61.6606C66.3368 68.1447 70.1305 71.2904 70.1305 75.1712V82.5334C70.1305 83.9762 68.7325 85.1468 66.9767 85.1468Z" fill="white" stroke="#1D1E1E" stroke-width="1.3" stroke-miterlimit="10"/>
<path d="M55.7902 79.3302C48.8898 79.8215 41.9632 79.8215 35.0629 79.3302H55.7902Z" fill="white"/>
<path d="M55.7902 79.3302C48.8898 79.8215 41.9632 79.8215 35.0629 79.3302" stroke="#1D1E1E" stroke-width="1.3" stroke-miterlimit="10" stroke-linecap="round"/>
<path d="M29.5901 73.7161H27.5099C26.4505 73.7161 25.5917 74.5727 25.5917 75.6293V76.2282C25.5917 77.2849 26.4505 78.1415 27.5099 78.1415H29.5901C30.6495 78.1415 31.5083 77.2849 31.5083 76.2282V75.6293C31.5083 74.5727 30.6495 73.7161 29.5901 73.7161Z" fill="#318FCC" stroke="#1D1E1E" stroke-width="1.3" stroke-miterlimit="10"/>
<path d="M63.2928 73.0901H60.9184C59.7091 73.0901 58.7289 74.0679 58.7289 75.274V75.9576C58.7289 77.1637 59.7091 78.1415 60.9184 78.1415H63.2928C64.5021 78.1415 65.4823 77.1637 65.4823 75.9576V75.274C65.4823 74.0679 64.5021 73.0901 63.2928 73.0901Z" fill="#318FCC" stroke="#1D1E1E" stroke-width="1.3" stroke-miterlimit="10"/>
<path d="M48.1007 78.7516H52.0889C52.891 78.7516 53.6602 79.0694 54.2274 79.6351C54.7945 80.2008 55.1132 80.9681 55.1132 81.7681V87.047C55.1132 88.126 54.6834 89.1608 53.9185 89.9238C53.1535 90.6868 52.116 91.1155 51.0342 91.1155H49.144C48.0629 91.1145 47.0263 90.6854 46.2622 89.9225C45.4981 89.1596 45.0688 88.1253 45.0688 87.047V81.7681C45.0688 80.9681 45.3875 80.2008 45.9546 79.6351C46.5218 79.0694 47.291 78.7516 48.0931 78.7516H48.1007Z" fill="white" stroke="#1D1E1E" stroke-width="1.3" stroke-miterlimit="10"/>
<path d="M94.0006 78.7516H97.9889C98.7909 78.7516 99.5602 79.0694 100.127 79.6351C100.694 80.2008 101.013 80.9681 101.013 81.7681V87.047C101.013 88.126 100.583 89.1609 99.8184 89.9238C99.0535 90.6868 98.016 91.1155 96.9342 91.1155H95.044C93.9622 91.1155 92.9247 90.6868 92.1597 89.9238C91.3948 89.1609 90.965 88.126 90.965 87.047V81.7681C90.965 81.371 91.0436 80.9779 91.1963 80.6111C91.349 80.2444 91.5728 79.9114 91.8548 79.6311C92.1368 79.3509 92.4716 79.1289 92.8398 78.978C93.208 78.8271 93.6025 78.7501 94.0006 78.7516Z" fill="white" stroke="#1D1E1E" stroke-width="1.3" stroke-miterlimit="10"/>
<path d="M103.002 63.7899C103.137 63.6206 103.254 63.4388 103.354 63.2469C103.695 62.5874 103.84 61.8444 103.773 61.1052C103.699 60.4427 103.447 59.8126 103.043 59.2815C102.639 58.7505 102.098 58.3383 101.479 58.0887C100.921 57.8665 100.317 57.7834 99.7194 57.8469C99.1221 57.9103 98.5492 58.1183 98.0508 58.4527C97.5523 58.7871 97.1432 59.238 96.8591 59.7659C96.575 60.2939 96.4244 60.8831 96.4205 61.4823C96.4209 61.6083 96.4285 61.7342 96.4432 61.8593C96.5325 62.5756 96.4941 63.3019 96.3298 64.0048L96.0652 65.0757C96.0389 65.1784 96.0405 65.2862 96.0699 65.3881C96.0993 65.4899 96.1554 65.5821 96.2325 65.6551C96.3095 65.7281 96.4047 65.7793 96.5082 65.8034C96.6117 65.8274 96.7198 65.8236 96.8212 65.7921L98.3976 65.3509C98.9559 65.2107 99.5308 65.1472 100.106 65.1624C100.659 65.1571 101.205 65.0316 101.704 64.7946C102.204 64.5575 102.645 64.2147 102.998 63.7899H103.002Z" fill="white" stroke="#1D1E1E" stroke-width="1.3" stroke-miterlimit="10" stroke-linecap="round"/>
<path d="M42.0364 63.7898C41.9019 63.6205 41.7842 63.4387 41.6848 63.2468C41.3425 62.5876 41.1956 61.8446 41.2614 61.1051C41.3498 60.2604 41.7281 59.4721 42.3322 58.8736C42.9364 58.2751 43.7293 57.9033 44.5768 57.8209C45.088 57.7732 45.6036 57.8324 46.0906 57.9946C46.5777 58.1568 47.0254 58.4185 47.4053 58.763C47.7853 59.1075 48.089 59.5273 48.2971 59.9955C48.5053 60.4637 48.6132 60.97 48.6142 61.4822C48.6138 61.6082 48.6062 61.7341 48.5915 61.8592C48.5022 62.5755 48.5406 63.3018 48.7049 64.0047L48.9733 65.0756C48.998 65.1763 48.9959 65.2817 48.9673 65.3813C48.9386 65.481 48.8844 65.5715 48.8099 65.6439C48.7355 65.7162 48.6434 65.768 48.5427 65.7939C48.4421 65.8199 48.3364 65.8192 48.2361 65.792L46.6559 65.3508C46.0867 65.2071 45.5001 65.1436 44.9132 65.1623C44.3309 65.1616 43.757 65.0234 43.2385 64.7588C42.7727 64.5257 42.3627 64.1951 42.0364 63.7898Z" fill="white" stroke="#1D1E1E" stroke-width="1.3" stroke-miterlimit="10" stroke-linecap="round"/>
<path d="M97.5272 63.4807L93.1117 51.3657C92.3631 49.756 91.1667 48.3946 89.6649 47.4435C88.1631 46.4923 86.419 45.9913 84.6401 46.0001H60.1738C58.5479 45.994 56.9487 46.4126 55.5353 47.2143C54.122 48.0161 52.9438 49.1731 52.1179 50.5701L46.5836 63.8615L97.5272 63.4807Z" fill="#318FCC" stroke="#1D1E1E" stroke-width="1.3" stroke-miterlimit="10"/>
<path d="M99.807 83.7929C81.7048 84.7658 63.5633 84.7658 45.4611 83.7929C43.2912 83.7929 41.5295 82.3337 41.5295 80.5351V71.3575C41.5295 66.5198 46.2587 62.5983 52.088 62.5983H93.1801C99.0093 62.5983 103.739 66.5198 103.739 71.3575V80.5351C103.739 82.3337 101.996 83.7929 99.807 83.7929Z" fill="white" stroke="#1D1E1E" stroke-width="1.3" stroke-miterlimit="10"/>
<path d="M85.8615 76.5421C77.2595 77.1529 68.6249 77.1529 60.0229 76.5421H85.8615Z" fill="white"/>
<path d="M85.8615 76.5421C77.2595 77.1529 68.6249 77.1529 60.0229 76.5421" stroke="#1D1E1E" stroke-width="1.3" stroke-miterlimit="10" stroke-linecap="round"/>
<path d="M53.9067 68.7632H50.9467C49.4393 68.7632 48.2173 69.9821 48.2173 71.4856V72.3378C48.2173 73.8413 49.4393 75.0602 50.9467 75.0602H53.9067C55.4141 75.0602 56.6361 73.8413 56.6361 72.3378V71.4856C56.6361 69.9821 55.4141 68.7632 53.9067 68.7632Z" fill="#318FCC" stroke="#1D1E1E" stroke-width="1.3" stroke-miterlimit="10"/>
<path d="M95.2142 68.7632H92.2542C90.7468 68.7632 89.5248 69.9821 89.5248 71.4856V72.3378C89.5248 73.8413 90.7468 75.0602 92.2542 75.0602H95.2142C96.7216 75.0602 97.9436 73.8413 97.9436 72.3378V71.4856C97.9436 69.9821 96.7216 68.7632 95.2142 68.7632Z" fill="#318FCC" stroke="#1D1E1E" stroke-width="1.3" stroke-miterlimit="10"/>
<mask id="path-23-inside-1_122_1215" fill="white">
<path fill-rule="evenodd" clip-rule="evenodd" d="M46.5636 26.5618V31.9666C46.5636 32.2898 46.3016 32.5517 45.9785 32.5517C45.6554 32.5517 45.3934 32.2898 45.3934 31.9666V24.9458C45.3934 24.6994 45.5477 24.4795 45.7793 24.3956C46.0109 24.3118 46.2703 24.382 46.428 24.5712L51.2442 30.3506V24.9458C51.2442 24.6226 51.5061 24.3607 51.8292 24.3607C52.1524 24.3607 52.4143 24.6226 52.4143 24.9458V31.9666C52.4143 32.213 52.26 32.4329 52.0284 32.5168C51.7968 32.6006 51.5375 32.5304 51.3798 32.3412L46.5636 26.5618Z"/>
</mask>
<path fill-rule="evenodd" clip-rule="evenodd" d="M46.5636 26.5618V31.9666C46.5636 32.2898 46.3016 32.5517 45.9785 32.5517C45.6554 32.5517 45.3934 32.2898 45.3934 31.9666V24.9458C45.3934 24.6994 45.5477 24.4795 45.7793 24.3956C46.0109 24.3118 46.2703 24.382 46.428 24.5712L51.2442 30.3506V24.9458C51.2442 24.6226 51.5061 24.3607 51.8292 24.3607C52.1524 24.3607 52.4143 24.6226 52.4143 24.9458V31.9666C52.4143 32.213 52.26 32.4329 52.0284 32.5168C51.7968 32.6006 51.5375 32.5304 51.3798 32.3412L46.5636 26.5618Z" fill="#1D1E1E"/>
<path d="M46.5636 26.5618L47.5623 25.7295L45.2636 22.9711V26.5618H46.5636ZM45.7793 24.3956L46.2218 25.618L46.2219 25.618L45.7793 24.3956ZM46.428 24.5712L45.4293 25.4034L45.4293 25.4034L46.428 24.5712ZM51.2442 30.3506L50.2455 31.1829L52.5442 33.9413V30.3506H51.2442ZM52.0284 32.5168L51.586 31.2944L51.5858 31.2944L52.0284 32.5168ZM51.3798 32.3412L52.3785 31.509L52.3785 31.509L51.3798 32.3412ZM46.5636 26.5618H45.2636V31.9666H46.5636H47.8636V26.5618H46.5636ZM46.5636 31.9666H45.2636C45.2636 31.5718 45.5837 31.2517 45.9785 31.2517V32.5517V33.8517C47.0196 33.8517 47.8636 33.0078 47.8636 31.9666H46.5636ZM45.9785 32.5517V31.2517C46.3733 31.2517 46.6934 31.5718 46.6934 31.9666H45.3934H44.0934C44.0934 33.0078 44.9374 33.8517 45.9785 33.8517V32.5517ZM45.3934 31.9666H46.6934V24.9458H45.3934H44.0934V31.9666H45.3934ZM45.3934 24.9458H46.6934C46.6934 25.2467 46.5049 25.5155 46.2218 25.618L45.7793 24.3956L45.3368 23.1733C44.5905 23.4434 44.0934 24.1522 44.0934 24.9458H45.3934ZM45.7793 24.3956L46.2219 25.618C45.9389 25.7205 45.622 25.6347 45.4293 25.4034L46.428 24.5712L47.4266 23.739C46.9186 23.1293 46.083 22.9031 45.3367 23.1733L45.7793 24.3956ZM46.428 24.5712L45.4293 25.4034L50.2455 31.1829L51.2442 30.3506L52.2429 29.5184L47.4266 23.739L46.428 24.5712ZM51.2442 30.3506H52.5442V24.9458H51.2442H49.9442V30.3506H51.2442ZM51.2442 24.9458H52.5442C52.5442 25.3406 52.2241 25.6607 51.8292 25.6607V24.3607V23.0607C50.7881 23.0607 49.9442 23.9047 49.9442 24.9458H51.2442ZM51.8292 24.3607V25.6607C51.4344 25.6607 51.1143 25.3406 51.1143 24.9458H52.4143H53.7143C53.7143 23.9047 52.8704 23.0607 51.8292 23.0607V24.3607ZM52.4143 24.9458H51.1143V31.9666H52.4143H53.7143V24.9458H52.4143ZM52.4143 31.9666H51.1143C51.1143 31.6657 51.3028 31.3968 51.586 31.2944L52.0284 32.5168L52.4709 33.7391C53.2172 33.469 53.7143 32.7603 53.7143 31.9666H52.4143ZM52.0284 32.5168L51.5858 31.2944C51.8689 31.1919 52.1858 31.2777 52.3785 31.509L51.3798 32.3412L50.3811 33.1734C50.8891 33.7831 51.7247 34.0093 52.471 33.7391L52.0284 32.5168ZM51.3798 32.3412L52.3785 31.509L47.5623 25.7295L46.5636 26.5618L45.5649 27.394L50.3811 33.1734L51.3798 32.3412Z" fill="#1D1E1E" mask="url(#path-23-inside-1_122_1215)"/>
<mask id="path-25-inside-2_122_1215" fill="white">
<path fill-rule="evenodd" clip-rule="evenodd" d="M53.2922 28.4562C53.2922 26.1943 55.1258 24.3607 57.3877 24.3607C59.6496 24.3607 61.4832 26.1943 61.4832 28.4562C61.4832 30.7181 59.6496 32.5517 57.3877 32.5517C55.1258 32.5517 53.2922 30.7181 53.2922 28.4562ZM57.3877 25.5308C55.7721 25.5308 54.4623 26.8406 54.4623 28.4562C54.4623 30.0718 55.7721 31.3815 57.3877 31.3815C59.0033 31.3815 60.3131 30.0718 60.3131 28.4562C60.3131 26.8406 59.0033 25.5308 57.3877 25.5308Z"/>
</mask>
<path fill-rule="evenodd" clip-rule="evenodd" d="M53.2922 28.4562C53.2922 26.1943 55.1258 24.3607 57.3877 24.3607C59.6496 24.3607 61.4832 26.1943 61.4832 28.4562C61.4832 30.7181 59.6496 32.5517 57.3877 32.5517C55.1258 32.5517 53.2922 30.7181 53.2922 28.4562ZM57.3877 25.5308C55.7721 25.5308 54.4623 26.8406 54.4623 28.4562C54.4623 30.0718 55.7721 31.3815 57.3877 31.3815C59.0033 31.3815 60.3131 30.0718 60.3131 28.4562C60.3131 26.8406 59.0033 25.5308 57.3877 25.5308Z" fill="#1D1E1E"/>
<path d="M53.2922 28.4562H54.5922C54.5922 26.9122 55.8438 25.6607 57.3877 25.6607V24.3607V23.0607C54.4078 23.0607 51.9922 25.4763 51.9922 28.4562H53.2922ZM57.3877 24.3607V25.6607C58.9316 25.6607 60.1832 26.9122 60.1832 28.4562H61.4832H62.7832C62.7832 25.4763 60.3676 23.0607 57.3877 23.0607V24.3607ZM61.4832 28.4562H60.1832C60.1832 30.0001 58.9316 31.2517 57.3877 31.2517V32.5517V33.8517C60.3676 33.8517 62.7832 31.436 62.7832 28.4562H61.4832ZM57.3877 32.5517V31.2517C55.8438 31.2517 54.5922 30.0001 54.5922 28.4562H53.2922H51.9922C51.9922 31.436 54.4078 33.8517 57.3877 33.8517V32.5517ZM57.3877 25.5308V24.2308C55.0541 24.2308 53.1623 26.1226 53.1623 28.4562H54.4623H55.7623C55.7623 27.5585 56.49 26.8308 57.3877 26.8308V25.5308ZM54.4623 28.4562H53.1623C53.1623 30.7898 55.0541 32.6815 57.3877 32.6815V31.3815V30.0815C56.49 30.0815 55.7623 29.3538 55.7623 28.4562H54.4623ZM57.3877 31.3815V32.6815C59.7213 32.6815 61.6131 30.7898 61.6131 28.4562H60.3131H59.0131C59.0131 29.3538 58.2853 30.0815 57.3877 30.0815V31.3815ZM60.3131 28.4562H61.6131C61.6131 26.1226 59.7213 24.2308 57.3877 24.2308V25.5308V26.8308C58.2853 26.8308 59.0131 27.5585 59.0131 28.4562H60.3131Z" fill="#1D1E1E" mask="url(#path-25-inside-2_122_1215)"/>
<mask id="path-27-inside-3_122_1215" fill="white">
<path fill-rule="evenodd" clip-rule="evenodd" d="M61.1903 24.9457C61.1903 24.6226 61.4522 24.3607 61.7754 24.3607H66.456C66.7791 24.3607 67.041 24.6226 67.041 24.9457C67.041 25.2689 66.7791 25.5308 66.456 25.5308H64.7008V31.9666C64.7008 32.2898 64.4388 32.5517 64.1157 32.5517C63.7925 32.5517 63.5306 32.2898 63.5306 31.9666V25.5308H61.7754C61.4522 25.5308 61.1903 25.2689 61.1903 24.9457Z"/>
</mask>
<path fill-rule="evenodd" clip-rule="evenodd" d="M61.1903 24.9457C61.1903 24.6226 61.4522 24.3607 61.7754 24.3607H66.456C66.7791 24.3607 67.041 24.6226 67.041 24.9457C67.041 25.2689 66.7791 25.5308 66.456 25.5308H64.7008V31.9666C64.7008 32.2898 64.4388 32.5517 64.1157 32.5517C63.7925 32.5517 63.5306 32.2898 63.5306 31.9666V25.5308H61.7754C61.4522 25.5308 61.1903 25.2689 61.1903 24.9457Z" fill="#1D1E1E"/>
<path d="M64.7008 25.5308V24.2308H63.4008V25.5308H64.7008ZM63.5306 25.5308H64.8306V24.2308H63.5306V25.5308ZM61.1903 24.9457H62.4903C62.4903 25.3406 62.1702 25.6607 61.7754 25.6607V24.3607V23.0607C60.7343 23.0607 59.8903 23.9046 59.8903 24.9457H61.1903ZM61.7754 24.3607V25.6607H66.456V24.3607V23.0607H61.7754V24.3607ZM66.456 24.3607V25.6607C66.0611 25.6607 65.741 25.3406 65.741 24.9457H67.041H68.341C68.341 23.9046 67.4971 23.0607 66.456 23.0607V24.3607ZM67.041 24.9457H65.741C65.741 24.5509 66.0611 24.2308 66.456 24.2308V25.5308V26.8308C67.4971 26.8308 68.341 25.9868 68.341 24.9457H67.041ZM66.456 25.5308V24.2308H64.7008V25.5308V26.8308H66.456V25.5308ZM64.7008 25.5308H63.4008V31.9666H64.7008H66.0008V25.5308H64.7008ZM64.7008 31.9666H63.4008C63.4008 31.5718 63.7208 31.2517 64.1157 31.2517V32.5517V33.8517C65.1568 33.8517 66.0008 33.0077 66.0008 31.9666H64.7008ZM64.1157 32.5517V31.2517C64.5105 31.2517 64.8306 31.5718 64.8306 31.9666H63.5306H62.2306C62.2306 33.0077 63.0746 33.8517 64.1157 33.8517V32.5517ZM63.5306 31.9666H64.8306V25.5308H63.5306H62.2306V31.9666H63.5306ZM63.5306 25.5308V24.2308H61.7754V25.5308V26.8308H63.5306V25.5308ZM61.7754 25.5308V24.2308C62.1702 24.2308 62.4903 24.5509 62.4903 24.9457H61.1903H59.8903C59.8903 25.9868 60.7343 26.8308 61.7754 26.8308V25.5308Z" fill="#1D1E1E" mask="url(#path-27-inside-3_122_1215)"/>
<mask id="path-29-inside-4_122_1215" fill="white">
<path fill-rule="evenodd" clip-rule="evenodd" d="M67.9186 24.9457C67.9186 24.6226 68.1806 24.3607 68.5037 24.3607H72.0142C72.3373 24.3607 72.5992 24.6226 72.5992 24.9457C72.5992 25.2689 72.3373 25.5308 72.0142 25.5308H69.0888V27.8711H72.0142C72.3373 27.8711 72.5992 28.133 72.5992 28.4562C72.5992 28.7793 72.3373 29.0412 72.0142 29.0412H69.0888V31.3815H72.0142C72.3373 31.3815 72.5992 31.6435 72.5992 31.9666C72.5992 32.2898 72.3373 32.5517 72.0142 32.5517H68.5037C68.1806 32.5517 67.9186 32.2898 67.9186 31.9666V24.9457Z"/>
</mask>
<path fill-rule="evenodd" clip-rule="evenodd" d="M67.9186 24.9457C67.9186 24.6226 68.1806 24.3607 68.5037 24.3607H72.0142C72.3373 24.3607 72.5992 24.6226 72.5992 24.9457C72.5992 25.2689 72.3373 25.5308 72.0142 25.5308H69.0888V27.8711H72.0142C72.3373 27.8711 72.5992 28.133 72.5992 28.4562C72.5992 28.7793 72.3373 29.0412 72.0142 29.0412H69.0888V31.3815H72.0142C72.3373 31.3815 72.5992 31.6435 72.5992 31.9666C72.5992 32.2898 72.3373 32.5517 72.0142 32.5517H68.5037C68.1806 32.5517 67.9186 32.2898 67.9186 31.9666V24.9457Z" fill="#1D1E1E"/>
<path d="M69.0888 25.5308V24.2308H67.7888V25.5308H69.0888ZM69.0888 27.8711H67.7888V29.1711H69.0888V27.8711ZM69.0888 29.0412V27.7412H67.7888V29.0412H69.0888ZM69.0888 31.3815H67.7888V32.6815H69.0888V31.3815ZM67.9186 24.9457H69.2186C69.2186 25.3406 68.8985 25.6607 68.5037 25.6607V24.3607V23.0607C67.4626 23.0607 66.6186 23.9046 66.6186 24.9457H67.9186ZM68.5037 24.3607V25.6607H72.0142V24.3607V23.0607H68.5037V24.3607ZM72.0142 24.3607V25.6607C71.6193 25.6607 71.2992 25.3406 71.2992 24.9457H72.5992H73.8992C73.8992 23.9046 73.0553 23.0607 72.0142 23.0607V24.3607ZM72.5992 24.9457H71.2992C71.2992 24.5509 71.6193 24.2308 72.0142 24.2308V25.5308V26.8308C73.0553 26.8308 73.8992 25.9868 73.8992 24.9457H72.5992ZM72.0142 25.5308V24.2308H69.0888V25.5308V26.8308H72.0142V25.5308ZM69.0888 25.5308H67.7888V27.8711H69.0888H70.3888V25.5308H69.0888ZM69.0888 27.8711V29.1711H72.0142V27.8711V26.5711H69.0888V27.8711ZM72.0142 27.8711V29.1711C71.6193 29.1711 71.2992 28.851 71.2992 28.4562H72.5992H73.8992C73.8992 27.4151 73.0553 26.5711 72.0142 26.5711V27.8711ZM72.5992 28.4562H71.2992C71.2992 28.0613 71.6193 27.7412 72.0142 27.7412V29.0412V30.3412C73.0553 30.3412 73.8992 29.4973 73.8992 28.4562H72.5992ZM72.0142 29.0412V27.7412H69.0888V29.0412V30.3412H72.0142V29.0412ZM69.0888 29.0412H67.7888V31.3815H69.0888H70.3888V29.0412H69.0888ZM69.0888 31.3815V32.6815H72.0142V31.3815V30.0815H69.0888V31.3815ZM72.0142 31.3815V32.6815C71.6193 32.6815 71.2992 32.3615 71.2992 31.9666H72.5992H73.8992C73.8992 30.9255 73.0553 30.0815 72.0142 30.0815V31.3815ZM72.5992 31.9666H71.2992C71.2992 31.5718 71.6193 31.2517 72.0142 31.2517V32.5517V33.8517C73.0553 33.8517 73.8992 33.0077 73.8992 31.9666H72.5992ZM72.0142 32.5517V31.2517H68.5037V32.5517V33.8517H72.0142V32.5517ZM68.5037 32.5517V31.2517C68.8985 31.2517 69.2186 31.5718 69.2186 31.9666H67.9186H66.6186C66.6186 33.0077 67.4626 33.8517 68.5037 33.8517V32.5517ZM67.9186 31.9666H69.2186V24.9457H67.9186H66.6186V31.9666H67.9186Z" fill="#1D1E1E" mask="url(#path-29-inside-4_122_1215)"/>
<mask id="path-31-inside-5_122_1215" fill="white">
<path fill-rule="evenodd" clip-rule="evenodd" d="M73.4772 24.9457C73.4772 24.6226 73.7391 24.3607 74.0622 24.3607H76.9876C78.2801 24.3607 79.3279 25.4084 79.3279 26.701C79.3279 27.6882 78.7166 28.5326 77.8519 28.8765L79.2662 31.705C79.4106 31.994 79.2935 32.3454 79.0045 32.4899C78.7155 32.6344 78.364 32.5173 78.2195 32.2283L76.626 29.0412H74.6473V31.9666C74.6473 32.2898 74.3854 32.5517 74.0622 32.5517C73.7391 32.5517 73.4772 32.2898 73.4772 31.9666V24.9457ZM74.6473 27.8711H76.9876C77.6339 27.8711 78.1578 27.3472 78.1578 26.701C78.1578 26.0547 77.6339 25.5308 76.9876 25.5308H74.6473V27.8711Z"/>
</mask>
<path fill-rule="evenodd" clip-rule="evenodd" d="M73.4772 24.9457C73.4772 24.6226 73.7391 24.3607 74.0622 24.3607H76.9876C78.2801 24.3607 79.3279 25.4084 79.3279 26.701C79.3279 27.6882 78.7166 28.5326 77.8519 28.8765L79.2662 31.705C79.4106 31.994 79.2935 32.3454 79.0045 32.4899C78.7155 32.6344 78.364 32.5173 78.2195 32.2283L76.626 29.0412H74.6473V31.9666C74.6473 32.2898 74.3854 32.5517 74.0622 32.5517C73.7391 32.5517 73.4772 32.2898 73.4772 31.9666V24.9457ZM74.6473 27.8711H76.9876C77.6339 27.8711 78.1578 27.3472 78.1578 26.701C78.1578 26.0547 77.6339 25.5308 76.9876 25.5308H74.6473V27.8711Z" fill="#1D1E1E"/>
<path d="M77.8519 28.8765L77.3715 27.6685L76.056 28.1916L76.6891 29.4579L77.8519 28.8765ZM79.2662 31.705L80.4289 31.1236L80.4289 31.1236L79.2662 31.705ZM79.0045 32.4899L79.5858 33.6527L79.5859 33.6527L79.0045 32.4899ZM78.2195 32.2283L77.0568 32.8096H77.0568L78.2195 32.2283ZM76.626 29.0412L77.7888 28.4599L77.4295 27.7412H76.626V29.0412ZM74.6473 29.0412V27.7412H73.3473V29.0412H74.6473ZM74.6473 27.8711H73.3473V29.1711H74.6473V27.8711ZM74.6473 25.5308V24.2308H73.3473V25.5308H74.6473ZM73.4772 24.9457H74.7772C74.7772 25.3406 74.4571 25.6607 74.0622 25.6607V24.3607V23.0607C73.0211 23.0607 72.1772 23.9046 72.1772 24.9457H73.4772ZM74.0622 24.3607V25.6607H76.9876V24.3607V23.0607H74.0622V24.3607ZM76.9876 24.3607V25.6607C77.5622 25.6607 78.0279 26.1264 78.0279 26.701H79.3279H80.6279C80.6279 24.6905 78.9981 23.0607 76.9876 23.0607V24.3607ZM79.3279 26.701H78.0279C78.0279 27.1377 77.7583 27.5147 77.3715 27.6685L77.8519 28.8765L78.3322 30.0845C79.675 29.5506 80.6279 28.2386 80.6279 26.701H79.3279ZM77.8519 28.8765L76.6891 29.4579L78.1034 32.2864L79.2662 31.705L80.4289 31.1236L79.0146 28.2951L77.8519 28.8765ZM79.2662 31.705L78.1034 32.2863C77.9268 31.9332 78.0699 31.5038 78.4231 31.3272L79.0045 32.4899L79.5859 33.6527C80.5171 33.1871 80.8944 32.0548 80.4289 31.1236L79.2662 31.705ZM79.0045 32.4899L78.4232 31.3272C78.7763 31.1506 79.2057 31.2937 79.3823 31.6469L78.2195 32.2283L77.0568 32.8096C77.5224 33.7409 78.6547 34.1182 79.5858 33.6527L79.0045 32.4899ZM78.2195 32.2283L79.3823 31.6469L77.7888 28.4599L76.626 29.0412L75.4633 29.6226L77.0568 32.8096L78.2195 32.2283ZM76.626 29.0412V27.7412H74.6473V29.0412V30.3412H76.626V29.0412ZM74.6473 29.0412H73.3473V31.9666H74.6473H75.9473V29.0412H74.6473ZM74.6473 31.9666H73.3473C73.3473 31.5718 73.6674 31.2517 74.0622 31.2517V32.5517V33.8517C75.1034 33.8517 75.9473 33.0077 75.9473 31.9666H74.6473ZM74.0622 32.5517V31.2517C74.4571 31.2517 74.7772 31.5718 74.7772 31.9666H73.4772H72.1772C72.1772 33.0077 73.0211 33.8517 74.0622 33.8517V32.5517ZM73.4772 31.9666H74.7772V24.9457H73.4772H72.1772V31.9666H73.4772ZM74.6473 27.8711V29.1711H76.9876V27.8711V26.5711H74.6473V27.8711ZM76.9876 27.8711V29.1711C78.3518 29.1711 79.4578 28.0652 79.4578 26.701H78.1578H76.8578C76.8578 26.6292 76.9159 26.5711 76.9876 26.5711V27.8711ZM78.1578 26.701H79.4578C79.4578 25.3367 78.3518 24.2308 76.9876 24.2308V25.5308V26.8308C76.9159 26.8308 76.8578 26.7727 76.8578 26.701H78.1578ZM76.9876 25.5308V24.2308H74.6473V25.5308V26.8308H76.9876V25.5308ZM74.6473 25.5308H73.3473V27.8711H74.6473H75.9473V25.5308H74.6473Z" fill="#1D1E1E" mask="url(#path-31-inside-5_122_1215)"/>
<path d="M46.5244 18.4544H78.1963C80.3361 18.4544 82.0711 20.1887 82.0713 22.3284V33.9749C82.0713 36.1148 80.3362 37.8499 78.1963 37.8499H46.5244C44.3846 37.8498 42.6504 36.1147 42.6504 33.9749V22.3284C42.6506 20.1888 44.3847 18.4545 46.5244 18.4544Z" stroke="#1D1E1E" stroke-width="1.3"/>
<circle cx="62.3607" cy="7.39344" r="2.74344" stroke="#1D1E1E" stroke-width="1.3"/>
<path d="M48.2213 18.7049L59.5328 8.5246" stroke="#1D1E1E" stroke-width="1.3"/>
<path d="M76.5 18.7049L65.1885 8.5246" stroke="#1D1E1E" stroke-width="1.3"/>
</svg>
