<svg width="122" height="91" viewBox="0 0 122 91" fill="none" xmlns="http://www.w3.org/2000/svg">
<path d="M73.0753 23.8247L73.0755 23.8248C77.4642 28.3554 80.2988 34.1586 81.1713 40.3989C82.0438 46.6392 80.9094 52.9949 77.9311 58.5509L77.9306 58.5518C64.3894 83.9062 25.6589 77.0967 22.0307 48.199C18.4857 19.8139 53.2844 3.38117 73.0753 23.8247Z" fill="white" stroke="#1D1E1E" stroke-width="1.4"/>
<path d="M81.4051 38.7461C81.7678 41.0645 81.8024 43.3573 81.5633 45.5906C78.1508 45.4243 77.1951 47.8203 76.4936 49.6065L76.4451 49.7332C75.98 50.9037 75.0382 51.808 73.8536 52.1968C73.634 52.2651 73.4227 52.332 73.2101 52.3907C71.9415 52.733 70.6355 52.1279 70.1126 50.9666C69.423 49.4483 68.2831 48.3235 67.4518 47.6444C66.8458 47.1515 66.486 46.433 66.4676 45.6613C66.4508 45.0085 66.6762 44.3775 67.1012 43.8772L70.2328 40.2314C70.9761 39.3665 71.4899 38.4523 71.7531 37.5176C72.1631 36.0492 72.0264 34.7938 71.3218 33.78C69.977 31.836 67.0673 31.5573 66.8776 31.5442C65.882 31.6142 65.2063 31.4386 64.8792 31.0385C64.5509 30.63 64.5205 29.9452 64.7811 28.9939L69.3015 20.5948C75.5608 24.4544 80.1804 30.9187 81.4051 38.7461ZM32.2278 22.133L35.2612 23.5841C36.6262 24.2396 37.9006 25.0795 39.039 26.0853L41.6109 28.3489C42.2695 28.8506 42.6066 29.479 42.6102 30.2105C42.6194 31.1964 41.9857 32.3251 41.0051 33.0907C40.7998 33.2504 40.5231 33.3361 40.2322 33.3303C37.7524 33.2911 36.146 34.1457 35.902 35.6392L35.7812 35.7942C35.541 36.1126 35.1897 36.3205 34.79 36.3828L31.7256 36.8602C30.7347 37.0146 29.8686 37.4219 29.2139 38.0346C28.4555 38.7486 27.403 40.3085 28.9429 42.6817C28.9552 42.7054 28.9757 42.7277 28.9963 42.75L31.6517 45.3836C32.2265 45.9495 32.9691 46.2253 33.6975 46.1374C34.8448 46.0012 35.9713 45.4597 36.9433 44.5847C37.2272 44.3277 37.6397 44.2379 38.0167 44.3579L41.1696 45.3733C41.7262 45.5505 42.3268 45.6271 42.963 45.6046C43.6672 45.58 44.9758 45.657 45.8555 46.4818L49.8777 50.2729C50.1988 50.5803 50.2185 51.088 49.9104 51.4084L48.3679 53.0531C47.7599 53.6926 47.3208 54.4845 47.0876 55.338L46.1145 58.8774C46.0312 59.1627 45.8992 59.4642 45.7147 59.7568C44.7819 61.264 44.3467 62.6256 44.365 63.9421C44.4263 64.7157 44.0908 65.1339 43.7437 65.205C43.4689 65.2479 43.2558 65.0853 43.1551 64.769L42.1514 61.461C41.7841 60.2585 41.1235 59.1442 40.2404 58.2433L37.624 55.5867C36.985 54.9372 36.479 54.1563 36.1182 53.2677C34.7735 49.9618 32.8403 47.9648 30.8138 47.7698C29.245 47.6652 27.6893 46.8266 26.7375 45.5959C25.5493 44.0531 23.6352 43.4321 21.95 44.001C21.5628 35.3111 25.5828 27.2029 32.2278 22.133Z" fill="#318FCC"/>
<path d="M32.2278 22.133L35.2612 23.5841C36.6262 24.2396 37.9006 25.0795 39.039 26.0853L41.6109 28.3489C42.2695 28.8506 42.6066 29.479 42.6102 30.2105C42.6194 31.1964 41.9857 32.3251 41.0051 33.0907C40.7998 33.2504 40.5231 33.3361 40.2322 33.3303C37.7524 33.2911 36.146 34.1457 35.902 35.6392L35.7812 35.7942C35.541 36.1126 35.1897 36.3205 34.79 36.3828L31.7256 36.8602C30.7347 37.0146 29.8686 37.4219 29.2139 38.0346C28.4555 38.7486 27.403 40.3085 28.9429 42.6817C28.9552 42.7054 28.9757 42.7277 28.9963 42.75L31.6517 45.3836C32.2265 45.9495 32.9691 46.2253 33.6975 46.1374C34.8448 46.0012 35.9713 45.4597 36.9433 44.5847C37.2272 44.3277 37.6397 44.2379 38.0167 44.3579L41.1696 45.3733C41.7262 45.5505 42.3268 45.6271 42.963 45.6046C43.6672 45.58 44.9758 45.657 45.8555 46.4818L49.8777 50.2729C50.1988 50.5803 50.2185 51.088 49.9104 51.4084L48.3679 53.0531C47.7599 53.6926 47.3208 54.4845 47.0876 55.338L46.1145 58.8774C46.0312 59.1627 45.8992 59.4642 45.7147 59.7568C44.7819 61.264 44.3467 62.6256 44.365 63.9421C44.4263 64.7157 44.0908 65.1339 43.7437 65.205C43.4689 65.2479 43.2558 65.0853 43.1551 64.769L42.1514 61.461C41.7841 60.2585 41.1235 59.1442 40.2404 58.2433L37.624 55.5867C36.985 54.9372 36.479 54.1563 36.1182 53.2677C34.7735 49.9618 32.8403 47.9648 30.8138 47.7698C29.245 47.6652 27.6893 46.8266 26.7375 45.5959C25.5493 44.0531 23.6352 43.4321 21.95 44.001C21.5628 35.3111 25.5828 27.2029 32.2278 22.133Z" fill="#318FCC"/>
<path d="M81.4051 38.7461C81.7678 41.0645 81.8024 43.3573 81.5633 45.5906C78.1508 45.4243 77.1951 47.8203 76.4936 49.6065L76.4451 49.7332C75.98 50.9037 75.0382 51.808 73.8536 52.1968C73.634 52.2651 73.4227 52.332 73.2101 52.3907C71.9415 52.733 70.6355 52.1279 70.1126 50.9666C69.423 49.4483 68.2831 48.3235 67.4518 47.6444C66.8458 47.1515 66.486 46.433 66.4676 45.6613C66.4508 45.0085 66.6762 44.3775 67.1012 43.8772L70.2328 40.2314C70.9761 39.3665 71.4899 38.4523 71.7531 37.5176C72.1631 36.0492 72.0264 34.7938 71.3218 33.78C69.977 31.836 67.0673 31.5573 66.8776 31.5442C65.882 31.6142 65.2063 31.4386 64.8792 31.0385C64.5509 30.63 64.5205 29.9452 64.7811 28.9939L69.3015 20.5948C75.5608 24.4544 80.1804 30.9187 81.4051 38.7461Z" fill="#318FCC"/>
<path d="M81.4051 38.7461C81.7678 41.0645 81.8024 43.3573 81.5633 45.5906C78.1508 45.4243 77.1951 47.8203 76.4936 49.6065L76.4451 49.7332C75.98 50.9037 75.0382 51.808 73.8536 52.1968C73.634 52.2651 73.4227 52.332 73.2101 52.3907C71.9415 52.733 70.6355 52.1279 70.1126 50.9666C69.423 49.4483 68.2831 48.3235 67.4518 47.6444C66.8458 47.1515 66.486 46.433 66.4676 45.6613C66.4508 45.0085 66.6762 44.3775 67.1012 43.8772L70.2328 40.2314C70.9761 39.3665 71.4899 38.4523 71.7531 37.5176C72.1631 36.0492 72.0264 34.7938 71.3218 33.78C69.977 31.836 67.0673 31.5573 66.8776 31.5442C65.882 31.6142 65.2063 31.4386 64.8792 31.0385C64.5509 30.63 64.5205 29.9452 64.7811 28.9939L69.3015 20.5948C75.5608 24.4544 80.1804 30.9187 81.4051 38.7461ZM32.2278 22.133L35.2612 23.5841C36.6262 24.2396 37.9006 25.0795 39.039 26.0853L41.6109 28.3489C42.2695 28.8506 42.6066 29.479 42.6102 30.2105C42.6194 31.1964 41.9857 32.3251 41.0051 33.0907C40.7998 33.2504 40.5231 33.3361 40.2322 33.3303C37.7524 33.2911 36.146 34.1457 35.902 35.6392L35.7812 35.7942C35.541 36.1126 35.1897 36.3205 34.79 36.3828L31.7256 36.8602C30.7347 37.0146 29.8686 37.4219 29.2139 38.0346C28.4555 38.7486 27.403 40.3085 28.9429 42.6817C28.9552 42.7054 28.9757 42.7277 28.9963 42.75L31.6517 45.3836C32.2265 45.9495 32.9691 46.2253 33.6975 46.1374C34.8448 46.0012 35.9713 45.4597 36.9433 44.5847C37.2272 44.3277 37.6397 44.2379 38.0167 44.3579L41.1696 45.3733C41.7262 45.5505 42.3268 45.6271 42.963 45.6046C43.6672 45.58 44.9758 45.657 45.8555 46.4818L49.8777 50.2729C50.1988 50.5803 50.2185 51.088 49.9104 51.4084L48.3679 53.0531C47.7599 53.6926 47.3208 54.4845 47.0876 55.338L46.1145 58.8774C46.0312 59.1627 45.8992 59.4642 45.7147 59.7568C44.7819 61.264 44.3467 62.6256 44.365 63.9421C44.4263 64.7157 44.0908 65.1339 43.7437 65.205C43.4689 65.2479 43.2558 65.0853 43.1551 64.769L42.1514 61.461C41.7841 60.2585 41.1235 59.1442 40.2404 58.2433L37.624 55.5867C36.985 54.9372 36.479 54.1563 36.1182 53.2677C34.7735 49.9618 32.8403 47.9648 30.8138 47.7698C29.245 47.6652 27.6893 46.8266 26.7375 45.5959C25.5493 44.0531 23.6352 43.4321 21.95 44.001C21.5628 35.3111 25.5828 27.2029 32.2278 22.133Z" stroke="#1D1E1E" stroke-width="1.4"/>
<path d="M32.2278 22.133L35.2612 23.5841C36.6262 24.2396 37.9006 25.0795 39.039 26.0853L41.6109 28.3489C42.2695 28.8506 42.6066 29.479 42.6102 30.2105C42.6194 31.1964 41.9857 32.3251 41.0051 33.0907C40.7998 33.2504 40.5231 33.3361 40.2322 33.3303C37.7524 33.2911 36.146 34.1457 35.902 35.6392L35.7812 35.7942C35.541 36.1126 35.1897 36.3205 34.79 36.3828L31.7256 36.8602C30.7347 37.0146 29.8686 37.4219 29.2139 38.0346C28.4555 38.7486 27.403 40.3085 28.9429 42.6817C28.9552 42.7054 28.9757 42.7277 28.9963 42.75L31.6517 45.3836C32.2265 45.9495 32.9691 46.2253 33.6975 46.1374C34.8448 46.0012 35.9713 45.4597 36.9433 44.5847C37.2272 44.3277 37.6397 44.2379 38.0167 44.3579L41.1696 45.3733C41.7262 45.5505 42.3268 45.6271 42.963 45.6046C43.6672 45.58 44.9758 45.657 45.8555 46.4818L49.8777 50.2729C50.1988 50.5803 50.2185 51.088 49.9104 51.4084L48.3679 53.0531C47.7599 53.6926 47.3208 54.4845 47.0876 55.338L46.1145 58.8774C46.0312 59.1627 45.8992 59.4642 45.7147 59.7568C44.7819 61.264 44.3467 62.6256 44.365 63.9421C44.4263 64.7157 44.0908 65.1339 43.7437 65.205C43.4689 65.2479 43.2558 65.0853 43.1551 64.769L42.1514 61.461C41.7841 60.2585 41.1235 59.1442 40.2404 58.2433L37.624 55.5867C36.985 54.9372 36.479 54.1563 36.1182 53.2677C34.7735 49.9618 32.8403 47.9648 30.8138 47.7698C29.245 47.6652 27.6893 46.8266 26.7375 45.5959C25.5493 44.0531 23.6352 43.4321 21.95 44.001C21.5628 35.3111 25.5828 27.2029 32.2278 22.133Z" stroke="#1D1E1E" stroke-width="1.4"/>
<path d="M81.4051 38.7461C81.7678 41.0645 81.8024 43.3573 81.5633 45.5906C78.1508 45.4243 77.1951 47.8203 76.4936 49.6065L76.4451 49.7332C75.98 50.9037 75.0382 51.808 73.8536 52.1968C73.634 52.2651 73.4227 52.332 73.2101 52.3907C71.9415 52.733 70.6355 52.1279 70.1126 50.9666C69.423 49.4483 68.2831 48.3235 67.4518 47.6444C66.8458 47.1515 66.486 46.433 66.4676 45.6613C66.4508 45.0085 66.6762 44.3775 67.1012 43.8772L70.2328 40.2314C70.9761 39.3665 71.4899 38.4523 71.7531 37.5176C72.1631 36.0492 72.0264 34.7938 71.3218 33.78C69.977 31.836 67.0673 31.5573 66.8776 31.5442C65.882 31.6142 65.2063 31.4386 64.8792 31.0385C64.5509 30.63 64.5205 29.9452 64.7811 28.9939L69.3015 20.5948C75.5608 24.4544 80.1804 30.9187 81.4051 38.7461Z" stroke="#1D1E1E" stroke-width="1.4"/>
<path d="M50.3426 55.4054C47.5686 57.1686 44.3263 58.9066 40.7771 60.4808C28.566 65.897 17.347 67.3243 15.7187 63.6688C14.6451 61.2587 16.8138 57.2603 22.7298 53.2501" stroke="#1D1E1E" stroke-width="1.4" stroke-linecap="round"/>
<path d="M27.4149 64.2959C24.6634 67.6201 23.4972 70.4647 24.5495 72.087C26.4094 74.9545 34.5988 73.0762 43.9362 67.9556" stroke="#1D1E1E" stroke-width="1.4" stroke-linecap="round"/>
<path d="M55 74L110 74" stroke="#1D1E1E" stroke-width="1.4" stroke-miterlimit="10" stroke-linecap="round"/>
<path d="M62.6214 65.063H65.5535C66.1451 65.063 66.7105 65.3004 67.1247 65.7158C67.5454 66.1313 67.7755 66.6984 67.7755 67.2853V71.1759C67.7755 71.9738 67.4599 72.7322 66.8946 73.2927C66.3292 73.8532 65.5666 74.1697 64.7711 74.1697H63.3774C62.582 74.1697 61.8194 73.8532 61.2606 73.2927C60.7018 72.7322 60.3862 71.9672 60.3862 71.1759V67.2853C60.3862 66.9951 60.4454 66.705 60.5572 66.4346C60.6689 66.1642 60.8333 65.9202 61.0436 65.7158C61.254 65.5114 61.4972 65.3465 61.7668 65.2344C62.0363 65.1223 62.3256 65.063 62.6214 65.0696V65.063Z" fill="white" stroke="#1D1E1E" stroke-width="1.4" stroke-miterlimit="10"/>
<path d="M96.4073 65.0676H99.3459C99.9376 65.0676 100.503 65.305 100.917 65.7205C101.338 66.1359 101.568 66.703 101.568 67.2899V71.1806C101.568 71.9785 101.252 72.7368 100.687 73.2973C100.122 73.8578 99.3591 74.1744 98.5636 74.1744H97.1699C96.3745 74.1744 95.6119 73.8578 95.0531 73.2907C94.4943 72.7302 94.1787 71.9653 94.1787 71.174V67.2833C94.1787 66.6964 94.4154 66.1293 94.8295 65.7139C95.2503 65.2984 95.8157 65.061 96.4008 65.061L96.4073 65.0676Z" fill="white" stroke="#1D1E1E" stroke-width="1.4" stroke-miterlimit="10"/>
<path d="M103.044 54.0394C103.143 53.9142 103.228 53.7823 103.301 53.6438C103.544 53.1558 103.649 52.6085 103.596 52.0612C103.544 51.5732 103.353 51.1116 103.057 50.7159C102.762 50.3269 102.36 50.0235 101.907 49.8389C101.664 49.74 101.414 49.6806 101.157 49.6542C100.783 49.6213 100.401 49.6608 100.04 49.7795C99.6783 49.8982 99.3496 50.0895 99.0735 50.3466C98.7908 50.6038 98.5673 50.9072 98.4161 51.2566C98.2648 51.5996 98.186 51.9754 98.186 52.3513C98.186 52.4436 98.186 52.5359 98.2057 52.6283C98.2714 53.1558 98.2451 53.6899 98.1202 54.2109L97.923 55.0022C97.9033 55.0748 97.9033 55.1605 97.923 55.233C97.9427 55.3056 97.9887 55.3781 98.0413 55.4308C98.1005 55.4836 98.1662 55.5232 98.2451 55.543C98.324 55.5627 98.4029 55.5561 98.4752 55.5364L99.6388 55.2132C100.053 55.1077 100.487 55.055 100.914 55.0616C101.322 55.0616 101.723 54.9692 102.091 54.7912C102.459 54.6132 102.781 54.3626 103.044 54.046V54.0394Z" fill="white" stroke="#1D1E1E" stroke-width="1.4" stroke-miterlimit="10" stroke-linecap="round"/>
<path d="M58.1506 54.0416C58.052 53.9164 57.9665 53.7845 57.8942 53.646C57.6444 53.158 57.5326 52.6107 57.5852 52.0699C57.6378 51.582 57.8285 51.1204 58.1243 50.7247C58.4201 50.3356 58.8212 50.0323 59.2748 49.8477C59.518 49.7487 59.7678 49.6894 60.0242 49.663C60.3989 49.63 60.7802 49.6696 61.1418 49.7883C61.5034 49.907 61.8321 50.0982 62.1082 50.3554C62.3909 50.6126 62.6144 50.9159 62.7656 51.2654C62.9168 51.6083 62.9957 51.9842 62.9957 52.3601C62.9957 52.4524 62.9957 52.5447 62.976 52.6371C62.9102 53.1646 62.9365 53.6987 63.0614 54.2197L63.2587 55.011C63.2784 55.0835 63.2784 55.1693 63.2587 55.2418C63.2389 55.3143 63.1929 55.3869 63.1403 55.4396C63.0812 55.4924 63.0154 55.532 62.9365 55.5517C62.8576 55.5715 62.7788 55.5649 62.7064 55.5451L61.5428 55.222C61.1287 55.1165 60.7014 55.0638 60.274 55.0704C59.8664 55.0704 59.4654 54.978 59.0973 54.8C58.7291 54.6219 58.4004 54.3714 58.144 54.0548H58.1572L58.1506 54.0416Z" fill="white" stroke="#1D1E1E" stroke-width="1.4" stroke-miterlimit="10" stroke-linecap="round" stroke-linejoin="round"/>
<path d="M99.0117 53.8102L95.7575 44.8881C95.2053 43.7011 94.3244 42.6988 93.2199 41.9998C92.1155 41.3008 90.8335 40.9315 89.5187 40.9381H71.5057C70.3093 40.9381 69.1325 41.2414 68.0872 41.8349C67.0485 42.4284 66.1807 43.2791 65.5694 44.3078L61.5 54.1003L99.0051 53.8168L99.0117 53.8102Z" fill="#318FCC" stroke="#1D1E1E" stroke-width="1.4" stroke-miterlimit="10"/>
<path d="M100.69 68.777C87.3644 69.4957 74.0058 69.4957 60.6802 68.777C59.0827 68.777 57.7876 67.7021 57.7876 66.3766V59.6175C57.7876 56.0499 61.2653 53.1616 65.5582 53.1616H95.812C100.105 53.1616 103.583 56.0499 103.583 59.6175V66.3766C103.583 67.7021 102.288 68.777 100.69 68.777Z" fill="white" stroke="#1D1E1E" stroke-width="1.4" stroke-miterlimit="10"/>
<path d="M90.4226 63.4492C84.0918 63.8976 77.7346 63.8976 71.3972 63.4492" stroke="#1D1E1E" stroke-width="1.4" stroke-miterlimit="10" stroke-linecap="round"/>
<path d="M66.8967 57.7056H64.7141C63.603 57.7056 62.7024 58.6024 62.7024 59.7102V60.3367C62.7024 61.4445 63.603 62.3414 64.7141 62.3414H66.8967C68.0077 62.3414 68.9083 61.4445 68.9083 60.3367V59.7102C68.9083 58.6024 68.0077 57.7056 66.8967 57.7056Z" fill="#318FCC" stroke="#1D1E1E" stroke-width="1.4" stroke-miterlimit="10"/>
<path d="M97.3032 57.7056H95.1271C94.0161 57.7056 93.1155 58.6024 93.1155 59.7102V60.3367C93.1155 61.4445 94.0161 62.3414 95.1271 62.3414H97.3032C98.4142 62.3414 99.3148 61.4445 99.3148 60.3367V59.7102C99.3148 58.6024 98.4142 57.7056 97.3032 57.7056Z" fill="#318FCC" stroke="#1D1E1E" stroke-width="1.4" stroke-miterlimit="10"/>
<path fill-rule="evenodd" clip-rule="evenodd" d="M70 35.7618V38.8444C70 39.9245 70.8755 40.8 71.9556 40.8H90.0444C91.1245 40.8 92 39.9245 92 38.8444V35.7618H86.5696H75.775H70Z" fill="white"/>
<path d="M86.5696 35.7618H92V33.9556C92 32.8755 91.1245 32 90.0444 32H71.9556C70.8755 32 70 32.8755 70 33.9556V35.7618H75.775H86.5696Z" fill="white"/>
<path d="M70 35.7618H75.775M70 35.7618V38.8444M70 35.7618V33.9556M92 35.7618H86.5696M92 35.7618V33.9556M92 35.7618V38.8444M86.5696 35.7618V37.8443M86.5696 35.7618H75.775M75.775 35.7618V37.8443M71.9556 32H90.0444M71.9556 32C70.8755 32 70 32.8755 70 33.9556M71.9556 32V32C70.8755 32 70 32.8755 70 33.9556V33.9556M90.0444 32C91.1245 32 92 32.8755 92 33.9556M90.0444 32V32C91.1245 32 92 32.8755 92 33.9556V33.9556M92 38.8444C92 39.9245 91.1245 40.8 90.0444 40.8M92 38.8444V38.8444C92 39.9245 91.1245 40.8 90.0444 40.8V40.8M90.0444 40.8H71.9556M71.9556 40.8C70.8755 40.8 70 39.9245 70 38.8444M71.9556 40.8V40.8C70.8755 40.8 70 39.9245 70 38.8444V38.8444" stroke="#1D1E1E" stroke-width="1.4" stroke-linecap="round"/>
</svg>
